<svg width="52" height="52" viewBox="0 0 52 52" fill="none" xmlns="http://www.w3.org/2000/svg">
<path d="M44.6875 5.6875H7.3125C6.41367 5.6875 5.6875 6.41367 5.6875 7.3125V44.6875C5.6875 45.5863 6.41367 46.3125 7.3125 46.3125H44.6875C45.5863 46.3125 46.3125 45.5863 46.3125 44.6875V7.3125C46.3125 6.41367 45.5863 5.6875 44.6875 5.6875ZM30.3926 17.8191H37.4207V19.5305H30.3926V17.8191ZM26 31.9312C25.6713 32.5552 25.2019 33.0942 24.6289 33.5055C24.0297 33.9219 23.3645 34.2266 22.6586 34.4043C21.9201 34.6022 21.1583 34.6996 20.3938 34.6938H11.9844V17.3723H20.1602C20.9879 17.3723 21.7395 17.4484 22.425 17.5906C23.1055 17.7328 23.6844 17.9766 24.1719 18.3066C24.6543 18.6367 25.0352 19.0785 25.3043 19.627C25.5684 20.1703 25.7055 20.8508 25.7055 21.6582C25.7055 22.5316 25.5074 23.2527 25.1113 23.8367C24.7102 24.4207 24.1313 24.893 23.3441 25.2637C24.4156 25.5684 25.2027 26.1117 25.7207 26.8734C26.2488 27.6453 26.5078 28.5695 26.5078 29.6562C26.5078 30.5398 26.3402 31.2965 26 31.9312ZM40.1578 29.25H31.0984C31.0984 30.2352 31.4387 31.1797 31.9516 31.6875C32.4695 32.1902 33.2109 32.4441 34.1809 32.4441C34.8816 32.4441 35.4758 32.2664 35.9836 31.916C36.4863 31.5656 36.791 31.1949 36.9027 30.809H39.9395C39.452 32.3172 38.7105 33.3938 37.7051 34.0438C36.7098 34.6938 35.491 35.0187 34.0742 35.0187C33.084 35.0187 32.1953 34.8562 31.398 34.5465C30.6312 34.2469 29.9406 33.7898 29.3719 33.2008C28.8111 32.5958 28.3776 31.8844 28.0973 31.1086C27.7875 30.2504 27.6352 29.3465 27.6453 28.4375C27.6453 27.498 27.8027 26.6246 28.1074 25.8121C28.6914 24.2328 29.9051 22.9684 31.4539 22.3133C32.2816 21.968 33.1703 21.7953 34.0691 21.8055C35.1355 21.8055 36.0598 22.0086 36.8621 22.425C37.6345 22.8226 38.3052 23.3925 38.8223 24.0906C39.3352 24.7863 39.6957 25.5785 39.9242 26.4723C40.1426 27.3508 40.2187 28.275 40.1578 29.25V29.25ZM33.9625 24.3953C33.4141 24.3953 32.952 24.4918 32.5965 24.6797C32.241 24.8676 31.9465 25.1012 31.723 25.3703C31.5103 25.6302 31.353 25.9309 31.2609 26.2539C31.1797 26.523 31.1238 26.7973 31.1035 27.0766H36.7148C36.6336 26.198 36.3289 25.548 35.9227 25.091C35.4961 24.6391 34.8105 24.3953 33.9625 24.3953V24.3953ZM21.3434 23.8824C21.7852 23.5625 21.9984 23.0344 21.9984 22.3082C22.0137 21.9629 21.9426 21.6227 21.7902 21.3129C21.6531 21.0641 21.45 20.8559 21.2012 20.7086C20.9432 20.5521 20.6566 20.4486 20.3582 20.4039C20.0332 20.343 19.7031 20.3125 19.3781 20.3176H15.8082V24.3648H19.6727C20.3379 24.3699 20.9016 24.2074 21.3434 23.8824V23.8824ZM21.9426 27.5387C21.4449 27.1578 20.7797 26.9699 19.952 26.9699H15.798V31.7434H19.8707C20.2516 31.7434 20.602 31.7078 20.9422 31.6367C21.2824 31.5656 21.5871 31.4437 21.8461 31.2711C22.1051 31.1035 22.3133 30.875 22.4707 30.5805C22.623 30.2859 22.6992 29.9102 22.6992 29.4582C22.6992 28.5594 22.4453 27.9246 21.9426 27.5387V27.5387Z" fill="#0F0F0F"/>
</svg>
