<svg width="52" height="52" viewBox="0 0 52 52" fill="none" xmlns="http://www.w3.org/2000/svg">
<path d="M46.6989 8.66664C46.502 8.64636 46.3036 8.64636 46.1067 8.66664H5.66222C5.40301 8.67064 5.14551 8.70951 4.89667 8.7822L25.7689 29.5678L46.6989 8.66664Z" fill="#0F0F0F"/>
<path d="M48.8367 10.6744L27.8056 31.6189C27.2643 32.1569 26.5321 32.459 25.7689 32.459C25.0057 32.459 24.2735 32.1569 23.7322 31.6189L2.88889 10.8333C2.82482 11.0688 2.79084 11.3115 2.78778 11.5555V40.4444C2.78778 41.2106 3.09215 41.9454 3.63392 42.4872C4.17569 43.029 4.91049 43.3333 5.67667 43.3333H46.1211C46.8873 43.3333 47.6221 43.029 48.1639 42.4872C48.7056 41.9454 49.01 41.2106 49.01 40.4444V11.5555C48.9985 11.2546 48.94 10.9573 48.8367 10.6744V10.6744ZM7.65556 40.4444H5.64778V38.3789L16.1489 27.9644L18.1856 30.0011L7.65556 40.4444ZM46.0922 40.4444H44.07L33.54 30.0011L35.5767 27.9644L46.0778 38.3789L46.0922 40.4444Z" fill="#0F0F0F"/>
</svg>
