<svg width="46" height="46" viewBox="0 0 46 46" fill="none" xmlns="http://www.w3.org/2000/svg">
<path d="M9.55075 13.7943C11.8668 13.7943 13.7444 11.9167 13.7444 9.60059C13.7444 7.28449 11.8668 5.40692 9.55075 5.40692C7.23465 5.40692 5.35708 7.28449 5.35708 9.60059C5.35708 11.9167 7.23465 13.7943 9.55075 13.7943Z" fill="#0F0F0F"/>
<path d="M17.7042 16.9721V40.2385H24.9282V28.7327C24.9282 25.6967 25.4993 22.7566 29.2637 22.7566C32.9762 22.7566 33.0222 26.2277 33.0222 28.9244V40.2404H40.25V27.4812C40.25 21.2137 38.9007 16.3971 31.5752 16.3971C28.0581 16.3971 25.7006 18.3272 24.7365 20.1537H24.6387V16.9721H17.7042V16.9721ZM5.93208 16.9721H13.1675V40.2385H5.93208V16.9721Z" fill="#0F0F0F"/>
</svg>
