<svg width="50" height="41" viewBox="0 0 50 41" fill="none" xmlns="http://www.w3.org/2000/svg">
<path d="M50 4.81105C48.6076 6.88209 46.8994 8.64756 44.8754 10.1075C44.8954 10.499 44.9054 10.9415 44.9054 11.4351C44.9054 14.1772 44.5056 16.9227 43.706 19.6715C42.9064 22.4204 41.685 25.0515 40.0418 27.5649C38.3987 30.0783 36.4413 32.305 34.1699 34.2449C31.8984 36.1848 29.168 37.7316 25.9786 38.8852C22.7893 40.0389 19.3711 40.6157 15.7242 40.6157C10.0326 40.6157 4.79121 39.0792 0 36.0061C0.850384 36.1007 1.66597 36.1481 2.44677 36.1481C7.20165 36.1481 11.4485 34.6835 15.1874 31.7544C12.9704 31.7137 10.9849 31.0313 9.23093 29.707C7.47695 28.3827 6.26991 26.6906 5.6098 24.6305C6.26227 24.7548 6.90625 24.8169 7.54172 24.8169C8.45644 24.8169 9.35651 24.6976 10.2419 24.459C7.87599 23.9852 5.91323 22.8068 4.35367 20.9239C2.79417 19.0409 2.01442 16.8677 2.01442 14.4041V14.2771C3.46664 15.0812 5.01567 15.5089 6.6615 15.5603C5.25993 14.6259 4.1487 13.4074 3.3278 11.9049C2.50685 10.4024 2.09638 8.77636 2.09638 7.02688C2.09638 5.18176 2.55873 3.46361 3.48344 1.87242C6.05636 5.0298 9.174 7.55328 12.8363 9.44286C16.4987 11.3325 20.4278 12.3819 24.6235 12.5911C24.4445 11.8454 24.3549 11.0671 24.3546 10.2563C24.3546 7.42555 25.3563 5.00845 27.3599 3.00507C29.3635 1.00169 31.7806 0 34.6115 0C37.5752 0 40.0716 1.07917 42.1007 3.23752C44.4189 2.77831 46.5896 1.94774 48.6127 0.745785C47.8333 3.1987 46.3314 5.09096 44.1071 6.42256C46.1514 6.17962 48.1157 5.64245 49.9999 4.81105H50Z" fill="#0F0F0F"/>
</svg>
